<svg id="Layer_3" enable-background="new 0 0 64 64" height="512" viewBox="0 0 64 64" width="512" xmlns="http://www.w3.org/2000/svg" style="fill: #2AEDFF;"><path d="m57 19.079c0-.026 0-.052 0-.079 0-6.065-4.935-11-11-11-.796 0-1.585.087-2.356.255-2.126-4.291-6.539-7.255-11.644-7.255-6.098 0-11.285 4.173-12.648 10.029-4.657.277-8.664 3.499-9.931 7.971h-3.421c-2.757 0-5 2.243-5 5v24c0 2.757 2.243 5 5 5h10.382l-2 4h-1.382c-2.757 0-5 2.243-5 5v1h30v-1c0-2.757-2.243-5-5-5h-1.382l-2-4h10.382c2.757 0 5-2.243 5-5v-15h11c3.86 0 7-3.14 7-7 0-3.507-2.593-6.42-6-6.921zm-21.171 41.921h-25.658c.413-1.164 1.525-2 2.829-2h20c1.304 0 2.416.836 2.829 2zm-6.447-4h-12.764l2-4h8.764zm13.618-9c0 1.654-1.346 3-3 3h-34c-1.654 0-3-1.346-3-3v-24c0-1.654 1.346-3 3-3h34c1.654 0 3 1.346 3 3zm13-17h-11v-7c0-2.757-2.243-5-5-5h-28.479c1.254-3.537 4.639-6 8.479-6 3.202 0 6.188 1.724 7.795 4.498l1.73-1.002c-1.727-2.984-4.764-4.969-8.135-5.403 1.288-4.749 5.586-8.093 10.61-8.093 6.065 0 11 4.935 11 11h2c0-1.338-.204-2.63-.581-3.846.521-.092 1.047-.154 1.581-.154 4.962 0 9 4.038 9 9 0 .305-.016.605-.046.902l-.06 1.098h1.106c2.757 0 5 2.243 5 5s-2.243 5-5 5z"/><path d="m32 5v2c3.86 0 7 3.14 7 7h2c0-4.962-4.038-9-9-9z"/><path d="m39 23h-32c-1.103 0-2 .897-2 2v22c0 1.103.897 2 2 2h32c1.103 0 2-.897 2-2v-22c0-1.103-.897-2-2-2zm-32 24v-22h32l.001 22z"/><path d="m18 27c-4.962 0-9 4.038-9 9s4.038 9 9 9 9-4.038 9-9-4.038-9-9-9zm1 2.08c1.244.179 2.382.683 3.325 1.427-.758.195-1.866.395-3.325.464zm-2 1.89c-1.459-.068-2.567-.268-3.325-.464.943-.745 2.081-1.248 3.325-1.427zm0 1.999v2.031h-5.92c.15-1.045.526-2.017 1.086-2.86.804.287 2.421.726 4.834.829zm0 4.031v2.031c-2.413.103-4.03.542-4.834.829-.56-.843-.936-1.815-1.086-2.86zm0 4.03v1.891c-1.244-.179-2.382-.683-3.325-1.427.758-.196 1.866-.396 3.325-.464zm2 0c1.459.068 2.567.268 3.325.464-.943.745-2.081 1.248-3.325 1.427zm0-1.999v-2.031h5.92c-.15 1.045-.526 2.017-1.086 2.86-.804-.287-2.421-.726-4.834-.829zm0-4.031v-2.031c2.413-.103 4.03-.542 4.834-.829.56.843.936 1.815 1.086 2.86z"/><path d="m29 27h8v2h-8z"/><path d="m29 45h8v-10h-8zm2-8h4v6h-4z"/><path d="m29 31h8v2h-8z"/><path d="m47 27h2v2h-2z"/><path d="m51 27h2v2h-2z"/><path d="m55 27h2v2h-2z"/></svg>